<svg xmlns="http://www.w3.org/2000/svg" viewBox="0 0 100 100" width="100" height="100">
    <defs>
        <style>
            .lib-icon-v3 { fill: #007bff; }
        </style>
    </defs>
    <path d="
    M50,0
    L58.5,8.5
    L69.3,5.6
    L74.1,16.6
    L85,16.6
    L85,27.5
    L96,32.3
    L93.1,43.1
    L100,50
    L93.1,56.9
    L96,67.7
    L85,72.5
    L85,83.4
    L74.1,83.4
    L69.3,94.4
    L58.5,91.5
    L50,100
    L41.5,91.5
    L30.7,94.4
    L25.9,83.4
    L15,83.4
    L15,72.5
    L4,67.7
    L6.9,56.9
    L0,50
    L6.9,43.1
    L4,32.3
    L15,27.5
    L15,16.6
    L25.9,16.6
    L30.7,5.6
    L41.5,8.5 Z

    M50,15
    a35,35 0 1,0 0,70
    a35,35 0 0,0 0,-70
    z

    m-12,38
    a7,7 0 1,1 0,14
    a7,7 0 0,1 0,-14
    z

    m24,0
    a7,7 0 1,1 0,14
    a7,7 0 0,1 0,-14
    z

    M36.7,51.7
    L44,59
    l-7.3,7.3
    z

    M63.3,51.7
    L56,59
    l7.3,7.3
    z

    M50,47
    l-4,24
    h2
    z
  " class="lib-icon-v3"/>
</svg>